<svg xmlns="http://www.w3.org/2000/svg" width="14" height="11" viewBox="0 0 14 11">
  <metadata><?xpacket begin="﻿" id="W5M0MpCehiHzreSzNTczkc9d"?>
<x:xmpmeta xmlns:x="adobe:ns:meta/" x:xmptk="Adobe XMP Core 5.6-c138 79.159824, 2016/09/14-01:09:01        ">
   <rdf:RDF xmlns:rdf="http://www.w3.org/1999/02/22-rdf-syntax-ns#">
      <rdf:Description rdf:about=""/>
   </rdf:RDF>
</x:xmpmeta>
                                                                                                    
                                                                                                    
                                                                                                    
                                                                                                    
                                                                                                    
                                                                                                    
                                                                                                    
                                                                                                    
                                                                                                    
                                                                                                    
                                                                                                    
                                                                                                    
                                                                                                    
                                                                                                    
                                                                                                    
                                                                                                    
                                                                                                    
                                                                                                    
                                                                                                    
                                                                                                    
                           
<?xpacket end="w"?></metadata>
<defs>
    <style>
      .cls-1 {
        fill-rule: evenodd;
      }
    </style>
  </defs>
  <path id="Layer_254" data-name="Layer 254" class="cls-1" d="M504,9892.3a5.683,5.683,0,0,1-1.65.43,2.776,2.776,0,0,0,1.263-1.53,5.963,5.963,0,0,1-1.824.67,2.918,2.918,0,0,0-2.1-.88,2.831,2.831,0,0,0-2.872,2.78,2.589,2.589,0,0,0,.075.63,8.229,8.229,0,0,1-5.921-2.9,2.706,2.706,0,0,0-.388,1.4,2.758,2.758,0,0,0,1.277,2.31,2.854,2.854,0,0,1-1.3-.35v0.04a2.8,2.8,0,0,0,2.3,2.72,2.707,2.707,0,0,1-.757.1,3.189,3.189,0,0,1-.54-0.05,2.866,2.866,0,0,0,2.683,1.93,5.921,5.921,0,0,1-3.567,1.19c-0.232,0-.461-0.02-0.685-0.04a8.317,8.317,0,0,0,4.4,1.25,7.983,7.983,0,0,0,8.172-7.91q0-.18-0.009-0.36A5.782,5.782,0,0,0,504,9892.3Z" transform="translate(-490 -9891)"/>
</svg>
